<svg width="22" height="23" viewBox="0 0 22 23" fill="none" xmlns="http://www.w3.org/2000/svg">
<path fill-rule="evenodd" clip-rule="evenodd" d="M8.62106 18.0823L18.776 5.9964C18.9661 5.77012 18.9368 5.50297 18.8074 5.35191C18.3406 4.80679 17.8185 4.24501 17.383 3.87905C16.9383 3.50545 16.265 3.06763 15.6214 2.68354C15.4434 2.57732 15.1698 2.59738 14.9793 2.824L4.83312 14.8996C4.59417 15.184 4.47147 15.526 4.47444 15.8651C4.48081 16.5914 4.50463 17.5485 4.57448 18.3533C4.59476 18.5869 4.61785 18.7944 4.64301 18.9713C4.82161 18.9656 5.02997 18.9526 5.26364 18.9323C6.0684 18.8624 7.01532 18.7209 7.73178 18.602C8.06636 18.5465 8.3821 18.3667 8.62106 18.0823ZM16.3389 1.48137C15.5335 1.00072 14.5108 1.20533 13.9075 1.92339L3.76126 13.999C3.31815 14.5263 3.06845 15.1886 3.07449 15.8774C3.08742 17.3521 3.17117 19.8777 3.58751 20.2275C4.00385 20.5773 6.50605 20.2246 7.96097 19.9831C8.64048 19.8704 9.24982 19.5103 9.69293 18.9829L19.8478 6.89702C20.4472 6.18367 20.4768 5.14899 19.8708 4.44129C19.392 3.88217 18.8097 3.24927 18.2836 2.80719C17.7489 2.3579 16.9953 1.87312 16.3389 1.48137Z" fill="#222628"/>
<path fill-rule="evenodd" clip-rule="evenodd" d="M14.1695 3.61791L14.171 3.6203L14.1784 3.63145L14.2097 3.67817C14.2376 3.71955 14.2792 3.7804 14.3322 3.85578C14.4386 4.00693 14.5897 4.21449 14.768 4.43959C15.1394 4.90859 15.5749 5.38394 15.943 5.62628C16.3992 5.92667 16.9162 6.24307 17.3222 6.48611C17.5245 6.60722 17.6979 6.70927 17.8205 6.78094C17.8818 6.81677 17.9303 6.84497 17.9634 6.86413L18.0011 6.8859L18.0128 6.89268C18.0128 6.89268 18.0128 6.89268 18.0128 6.89268C18.348 7.08531 18.4642 7.51354 18.2716 7.84873C18.079 8.18392 17.6511 8.2995 17.3159 8.10688L17.3015 8.09861L17.2617 8.0756C17.2272 8.05559 17.177 8.02645 17.114 7.98961C16.988 7.91596 16.8104 7.8114 16.6031 7.68735C16.19 7.44007 15.6536 7.11197 15.1731 6.79561C14.6045 6.4212 14.0524 5.79105 13.6704 5.30875C13.472 5.05819 13.305 4.82864 13.1874 4.6616C13.1285 4.57789 13.0816 4.50937 13.0491 4.46116C13.0328 4.43704 13.0201 4.41796 13.0112 4.40456L13.0008 4.3888L12.9978 4.38425L12.9969 4.38283C12.9969 4.38275 12.9964 4.382 13.5829 3.99996L12.9969 4.38283C12.7859 4.05888 12.8769 3.6244 13.2009 3.4134C13.5247 3.20245 13.9584 3.29415 14.1695 3.61791Z" fill="#222628"/>
</svg>
